<svg xmlns="http://www.w3.org/2000/svg" width="119.115" height="119.115" viewBox="0 0 119.115 119.115"><defs><style>.a{fill:#41a9ba;}</style></defs><g transform="translate(-6310.356 1378.761)"><path class="a" d="M6344.844-1289.192a7.6,7.6,0,0,0,7.594,7.594h34.951a7.6,7.6,0,0,0,7.592-7.594V-1349.2a7.6,7.6,0,0,0-7.592-7.594h-29.01v-.016c-2.266,0-4.211.059-6.227.016l-.01.014a7.6,7.6,0,0,0-7.3,7.58m43.988,60.007a1.447,1.447,0,0,1-1.443,1.445h-34.951a1.447,1.447,0,0,1-1.445-1.445v-3.008h37.839Zm0-9.157h-37.839v-41.693h37.839Zm0-47.841h-37.839v-3.009a1.446,1.446,0,0,1,1.445-1.445h34.951a1.445,1.445,0,0,1,1.443,1.445Z"/><path class="a" d="M6357.258-1313.978h25.307a3.073,3.073,0,0,0,3.075-3.074,3.075,3.075,0,0,0-3.075-3.074h-25.307a3.075,3.075,0,0,0-3.074,3.074A3.073,3.073,0,0,0,6357.258-1313.978Z"/><path class="a" d="M6378.7-1312.592h-17.576a3.075,3.075,0,0,0-3.074,3.074,3.074,3.074,0,0,0,3.074,3.075H6378.7a3.074,3.074,0,0,0,3.075-3.075A3.075,3.075,0,0,0,6378.7-1312.592Z"/><path class="a" d="M6378.7-1327.68h-17.576a3.075,3.075,0,0,0-3.074,3.075,3.074,3.074,0,0,0,3.074,3.074H6378.7a3.074,3.074,0,0,0,3.075-3.074A3.075,3.075,0,0,0,6378.7-1327.68Z"/></g><g transform="translate(-6310.356 1378.761)"><path class="a" d="M6369.912-1259.646a59.182,59.182,0,0,1-23.182-4.681,59.361,59.361,0,0,1-18.931-12.763,59.346,59.346,0,0,1-12.762-18.93,59.174,59.174,0,0,1-4.681-23.183,59.183,59.183,0,0,1,4.681-23.184,59.346,59.346,0,0,1,12.762-18.93,59.361,59.361,0,0,1,18.931-12.763,59.182,59.182,0,0,1,23.182-4.681,59.192,59.192,0,0,1,23.184,4.681,59.338,59.338,0,0,1,18.93,12.763,59.358,59.358,0,0,1,12.763,18.93,59.2,59.2,0,0,1,4.682,23.184,59.192,59.192,0,0,1-4.682,23.183,59.358,59.358,0,0,1-12.763,18.93,59.338,59.338,0,0,1-18.93,12.763A59.192,59.192,0,0,1,6369.912-1259.646Zm0-114.3a54.387,54.387,0,0,0-38.71,16.035,54.386,54.386,0,0,0-16.034,38.711,54.383,54.383,0,0,0,16.034,38.71,54.383,54.383,0,0,0,38.71,16.035,54.383,54.383,0,0,0,38.711-16.035,54.386,54.386,0,0,0,16.035-38.71,54.388,54.388,0,0,0-16.035-38.711A54.387,54.387,0,0,0,6369.912-1373.949Z"/></g></svg>