<svg xmlns="http://www.w3.org/2000/svg" width="118.171" height="118.172" viewBox="0 0 118.171 118.172"><defs><style>.a{fill:#41a9ba;}</style></defs><g transform="translate(-5854.112 1717.092)"><path class="a" d="M5938.885-1647.442c-6.9-2.8-16.02-4.348-25.687-4.348a76.27,76.27,0,0,0-21.342,2.835,2.2,2.2,0,0,0-1.318,1.068,2.2,2.2,0,0,0-.176,1.686,2.2,2.2,0,0,0,1.068,1.316,2.195,2.195,0,0,0,1.685.176,71.835,71.835,0,0,1,20.083-2.651c9.109,0,17.638,1.428,24.019,4.021,5.582,2.269,8.913,5.279,8.913,8.051s-3.331,5.782-8.913,8.051c-6.381,2.593-14.91,4.022-24.019,4.022s-17.638-1.429-24.018-4.022c-5.582-2.269-8.914-5.278-8.914-8.051,0-2.2,2-4.079,3.679-5.273a2.216,2.216,0,0,0,.52-3.088,2.2,2.2,0,0,0-1.436-.9,2.2,2.2,0,0,0-1.652.38c-3.624,2.578-5.539,5.649-5.539,8.882,0,4.777,4.144,9.094,11.674,12.154,6.9,2.8,16.019,4.348,25.686,4.348s18.788-1.544,25.687-4.348c7.528-3.06,11.674-7.377,11.674-12.154S5946.413-1644.381,5938.885-1647.442Z"/><path class="a" d="M5887.15-1642.665a2.227,2.227,0,0,0,.9-.192l.078-.036a2.2,2.2,0,0,0,1.167-1.23,2.195,2.195,0,0,0-.046-1.695,2.194,2.194,0,0,0-1.23-1.165,2.2,2.2,0,0,0-1.693.045l-.081.036a2.2,2.2,0,0,0-1.167,1.23,2.192,2.192,0,0,0,.046,1.694A2.215,2.215,0,0,0,5887.15-1642.665Z"/><path class="a" d="M5913.2-1627.191a45.351,45.351,0,0,0,14.515-2.134c5.941-2.091,7.187-4.927,7.187-6.939s-1.246-4.847-7.187-6.938a45.351,45.351,0,0,0-14.515-2.134,45.362,45.362,0,0,0-14.515,2.134c-5.941,2.091-7.188,4.927-7.188,6.938s1.247,4.848,7.188,6.939A45.363,45.363,0,0,0,5913.2-1627.191Zm-17.274-9.073c0-.5,1.185-1.7,4.366-2.8a41.166,41.166,0,0,1,12.908-1.842,41.174,41.174,0,0,1,12.908,1.842c3.181,1.1,4.366,2.3,4.366,2.8s-1.185,1.706-4.366,2.8a41.177,41.177,0,0,1-12.908,1.842,41.169,41.169,0,0,1-12.908-1.842C5897.109-1634.558,5895.924-1635.762,5895.924-1636.264Z"/><path class="a" d="M5902.941-1661.873a14.414,14.414,0,0,0,10.257,4.249,14.412,14.412,0,0,0,10.256-4.248,14.564,14.564,0,0,0,4.163-8.676,14.563,14.563,0,0,0-2.183-9.371l-10.368-16.281a2.2,2.2,0,0,0-1.868-1.026,2.2,2.2,0,0,0-1.868,1.026l-10.367,16.281a14.564,14.564,0,0,0-2.184,9.371A14.571,14.571,0,0,0,5902.941-1661.873Zm1.758-15.668,8.5-13.347,8.5,13.347a10.016,10.016,0,0,1-1.374,12.537,10.039,10.039,0,0,1-7.125,2.946,10.046,10.046,0,0,1-7.125-2.946A10.016,10.016,0,0,1,5904.7-1677.541Z"/><path class="a" d="M5919.053-1670.212a2.163,2.163,0,0,0,.614-.087,2.2,2.2,0,0,0,1.325-1.056,2.208,2.208,0,0,0,.187-1.7l-.015-.05a2.209,2.209,0,0,0-1.08-1.306,2.2,2.2,0,0,0-1.688-.159,2.213,2.213,0,0,0-1.469,2.754A2.223,2.223,0,0,0,5919.053-1670.212Z"/><path class="a" d="M5913.2-1663.386a8.689,8.689,0,0,0,6.185-2.558,2.218,2.218,0,0,0,0-3.132,2.218,2.218,0,0,0-3.132,0,4.323,4.323,0,0,1-6.106,0,2.2,2.2,0,0,0-1.566-.649,2.2,2.2,0,0,0-1.565.649,2.217,2.217,0,0,0,0,3.133A8.687,8.687,0,0,0,5913.2-1663.386Z"/></g><g transform="translate(-5854.112 1717.092)"><path class="a" d="M5913.2-1598.92a58.7,58.7,0,0,1-23-4.645,58.871,58.871,0,0,1-18.78-12.661,58.879,58.879,0,0,1-12.662-18.78,58.73,58.73,0,0,1-4.644-23,58.733,58.733,0,0,1,4.644-23,58.89,58.89,0,0,1,12.662-18.78,58.883,58.883,0,0,1,18.78-12.661,58.715,58.715,0,0,1,23-4.645,58.7,58.7,0,0,1,23,4.645,58.875,58.875,0,0,1,18.782,12.661,58.9,58.9,0,0,1,12.661,18.78,58.715,58.715,0,0,1,4.643,23,58.711,58.711,0,0,1-4.643,23,58.892,58.892,0,0,1-12.661,18.78,58.863,58.863,0,0,1-18.782,12.661A58.687,58.687,0,0,1,5913.2-1598.92Zm0-113.4a53.953,53.953,0,0,0-38.4,15.908,53.95,53.95,0,0,0-15.908,38.4,53.947,53.947,0,0,0,15.908,38.4,53.953,53.953,0,0,0,38.4,15.908,53.956,53.956,0,0,0,38.4-15.908,53.951,53.951,0,0,0,15.908-38.4,53.954,53.954,0,0,0-15.908-38.4A53.957,53.957,0,0,0,5913.2-1712.318Z" transform="translate(0)"/></g></svg>