<svg xmlns="http://www.w3.org/2000/svg" width="115.827" height="115.828" viewBox="0 0 115.827 115.828"><defs><style>.a,.b{fill:#41a9ba;}.b{stroke:#41a9ba;}</style></defs><g transform="translate(-6311.999 1721.778)"><path class="a" d="M6369.912-1605.95a57.571,57.571,0,0,1-22.543-4.552,57.726,57.726,0,0,1-18.408-12.411,57.73,57.73,0,0,1-12.41-18.408,57.543,57.543,0,0,1-4.552-22.543,57.551,57.551,0,0,1,4.552-22.544,57.737,57.737,0,0,1,12.41-18.407,57.724,57.724,0,0,1,18.408-12.411,57.568,57.568,0,0,1,22.543-4.552,57.567,57.567,0,0,1,22.545,4.552,57.717,57.717,0,0,1,18.407,12.411,57.713,57.713,0,0,1,12.41,18.407,57.551,57.551,0,0,1,4.552,22.544,57.543,57.543,0,0,1-4.552,22.543,57.706,57.706,0,0,1-12.41,18.408,57.719,57.719,0,0,1-18.407,12.411A57.569,57.569,0,0,1,6369.912-1605.95Zm0-111.149a52.886,52.886,0,0,0-37.642,15.593,52.884,52.884,0,0,0-15.592,37.642,52.886,52.886,0,0,0,15.592,37.642,52.885,52.885,0,0,0,37.642,15.592,52.886,52.886,0,0,0,37.643-15.592,52.888,52.888,0,0,0,15.592-37.642,52.886,52.886,0,0,0-15.592-37.642A52.887,52.887,0,0,0,6369.912-1717.1Z"/></g><g transform="translate(-6311.999 1721.778)"><path class="a" d="M6335.167-1640.946c0-3.952.008-7.9-.009-11.855a1.42,1.42,0,0,1,.676-1.348c.062-.039.116-.089.176-.133,1.471-1.1,1.479-1.1,1.4-2.96a.913.913,0,0,0-.3-.581c-.447-.381-.931-.717-1.4-1.067a1.251,1.251,0,0,1-.537-1.084c.007-2.371-.015-4.742.022-7.112a1.754,1.754,0,0,1,.424-1.022c1.232-1.437,2.514-2.831,3.751-4.263a1.387,1.387,0,0,0,.312-.82c.028-1.691.013-3.382.013-5.073,0-.933.408-1.361,1.33-1.363q3.75-.009,7.5,0c.932,0,1.327.416,1.329,1.361,0,1.692-.013,3.383.015,5.073a1.4,1.4,0,0,0,.311.82c1.213,1.405,2.449,2.79,3.7,4.165a1.838,1.838,0,0,1,.508,1.342q-.029,3.363,0,6.726a1.439,1.439,0,0,1-.679,1.35,2.567,2.567,0,0,1-.355.259c-1.455.577-1.274,1.819-1.208,3a.735.735,0,0,0,.295.422c.459.367.934.712,1.408,1.061a1.253,1.253,0,0,1,.533,1.086q-.008,11.992-.006,23.985c0,.911-.417,1.307-1.384,1.308q-5.763.009-11.524,0c-1.618,0-3.235,0-4.852,0-1.052,0-1.433-.387-1.433-1.425Q6335.165-1635.018,6335.167-1640.946Zm16.945,11v-1.031q0-10.368-.006-20.735c0-.311,0-.769-.188-.9-.543-.394-.947-1.039-1.748-1.036-3.29.012-6.581.04-9.871-.018a3.305,3.305,0,0,0-2.5.849.959.959,0,0,0-.388.778q.015,10.755.006,21.509c0,.192.023.384.035.587Zm-7.342-29.341v0c1.47,0,2.945-.062,4.41.021a3.062,3.062,0,0,0,2.577-.905,1.156,1.156,0,0,0,.341-.675q.04-2.757,0-5.514a1.223,1.223,0,0,0-.288-.725q-1.917-2.207-3.881-4.37a.916.916,0,0,0-.6-.258q-2.563-.03-5.128,0a.913.913,0,0,0-.6.264c-1.3,1.429-2.583,2.868-3.842,4.33a1.486,1.486,0,0,0-.32.876c-.032,1.654-.024,3.308-.006,4.962,0,.329,0,.807.193.957.56.426,1,1.071,1.856,1.051C6341.24-1659.313,6343.006-1659.285,6344.77-1659.285Zm2.795-18.045h-5.59v3.323h5.59Zm2.261,20.325h-10.1v1.062h10.1Z"/><path class="a" d="M6348.725-1640.956q0-3.141,0-6.281c0-.827.443-1.338,1.132-1.328s1.106.5,1.106,1.3q.01,6.307,0,12.617c0,.846-.423,1.323-1.136,1.317s-1.107-.49-1.108-1.346q0-3.141,0-6.281Z"/><path class="a" d="M6350.965-1663.816c0,.568.016,1.137,0,1.7a1.081,1.081,0,0,1-1.112,1.112,1.076,1.076,0,0,1-1.118-1.106c-.016-1.136-.018-2.273,0-3.41a1.12,1.12,0,0,1,1.113-1.126,1.129,1.129,0,0,1,1.121,1.121c.014.293,0,.586,0,.88v.825Z"/></g><path class="a" d="M6334-1621.148l-3.626-3.458,74.663-83.478,3.5,3.335Z" transform="translate(-6311.999 1721.778)"/><g transform="translate(-6311.999 1721.778)"><path class="b" d="M6405.816-1636.75a3.388,3.388,0,0,1-2,2.369c-.138.052-.251.344-.26.53a5.721,5.721,0,0,1-6.008,5.731c-9.922,0-19.843-.028-29.764.015a5.789,5.789,0,0,1-6.072-5.758.8.8,0,0,0-.4-.587,2.857,2.857,0,0,1-1.821-2.719,2.936,2.936,0,0,1,1.815-2.739.881.881,0,0,0,.409-.645c.022-5.225.013-10.451.026-15.677,0-.4-.163-.543-.5-.7a2.8,2.8,0,0,1-1.748-2.684,2.9,2.9,0,0,1,1.768-2.682.956.956,0,0,0,.459-.689q.037-7.839,0-15.677a.892.892,0,0,0-.421-.648,2.993,2.993,0,0,1-1.769-3.186,2.837,2.837,0,0,1,3.071-2.421,3.241,3.241,0,0,0,1.975-.534,32.445,32.445,0,0,1,12.429-4.974v-7.4l-.861-.1c0-1.265-.1-2.529.027-3.771a2.68,2.68,0,0,1,2.661-2.155q3.787-.034,7.573,0a2.736,2.736,0,0,1,2.771,2.788c.019,1.031,0,2.063,0,3.138l-.885.088v7.26a61.178,61.178,0,0,1,6.16,1.92c2.278.967,4.409,2.272,6.616,3.41a2.089,2.089,0,0,0,1.043.3,3.221,3.221,0,0,1,3.71,2.448v.909a3.3,3.3,0,0,1-2.033,2.335c-.122.042-.229.32-.23.489q-.018,7.944,0,15.887c0,.171.1.459.206.495a3.339,3.339,0,0,1,2.058,2.307v.909a3.2,3.2,0,0,1-1.681,2.182.843.843,0,0,0-.6.945c.018,5.12.01,10.24.012,15.36,0,.223.02.447.03.688a3.222,3.222,0,0,1,2.243,2.338Zm-42.826-42.334v16.539h39.3v-16.539Zm39.283,38.968v-16.491h-39.3v16.491Zm0,5.935h-39.291a4.408,4.408,0,0,0,4.387,4.847c2.928.016,5.856,0,8.782,0q10.827,0,21.653,0A4.414,4.414,0,0,0,6402.277-1634.181Zm-19.638-49.567H6363.1c-.3,0-.608-.005-.908.024a1.6,1.6,0,0,0-1.42,1.177,1.56,1.56,0,0,0,.375,1.667,2.172,2.172,0,0,0,1.791.618q19.692,0,39.384-.007a3.773,3.773,0,0,0,1.045-.123,1.7,1.7,0,0,0,1.024-2.424,1.865,1.865,0,0,0-1.907-.939Q6392.561-1683.738,6382.639-1683.748Zm0,22.4v.034h-19.618a7.027,7.027,0,0,0-.756.015,1.682,1.682,0,0,0-1.5,1.189,1.417,1.417,0,0,0,.5,1.751,3.039,3.039,0,0,0,1.593.505q19.769.042,39.537.016a3.309,3.309,0,0,0,.964-.127,1.748,1.748,0,0,0,1.235-1.785,1.724,1.724,0,0,0-1.586-1.554c-.351-.035-.705-.043-1.059-.043Q6392.3-1661.346,6382.64-1661.344Zm.028,22.454v.007q-6.591,0-13.18,0c-2.347,0-4.695,0-7.043.015a1.674,1.674,0,0,0-1.7,1.241,1.571,1.571,0,0,0,.692,1.841,3.531,3.531,0,0,0,1.582.372q19.656.024,39.31,0a3.8,3.8,0,0,0,1.115-.154,1.687,1.687,0,0,0,.989-2.276,1.95,1.95,0,0,0-2.073-1.048Q6392.515-1638.878,6382.668-1638.89Zm16.5-46.083c-10.925-6.926-24.509-5.716-32.947,0Zm-20.891-12.874v6.839h8.709v-6.839Zm9.743-1.23c0-.653.029-1.278-.006-1.9a1.656,1.656,0,0,0-1.82-1.676q-3.438-.008-6.875,0c-1.467,0-2.09.627-2.1,2.111a6.485,6.485,0,0,1-.006.755c-.074.592.147.777.756.771,3.123-.03,6.246-.013,9.369-.016C6387.53-1699.033,6387.726-1699.058,6388.016-1699.077Z"/></g></svg>